<svg id="Calque_1" data-name="Calque 1" xmlns="http://www.w3.org/2000/svg" viewBox="0 0 68 68"><defs><style>.cls-1{fill:#58595b;}.cls-2{fill:#fff;}</style></defs><title>Plan de travail 1</title><rect class="cls-1" x="-0.09" y="-0.11" width="68.39" height="68.16"/><path class="cls-2" d="M33.75,2.42A31.06,31.06,0,1,0,64.8,33.47,31,31,0,0,0,33.75,2.42ZM52.48,47.89H41.19a4,4,0,0,1-7.95,0H15V46.82H33.24a4,4,0,0,1,7.95,0H52.48Zm0-13.93H27.09a4,4,0,0,1-7.95,0H15V32.9h4.12a4,4,0,0,1,8,0H52.48Zm0-13.93H46.25a4,4,0,0,1-8,0H15V19H38.3a4,4,0,0,1,7.93,0h6.25Z"/></svg>