<svg id="Calque_1" data-name="Calque 1" xmlns="http://www.w3.org/2000/svg" viewBox="0 0 130.46 58.3"><defs><style>.cls-1{fill:#575756;}.cls-2{fill:#e74256;}</style></defs><title>LOGO_PM</title><rect class="cls-1" y="2.77" width="130.46" height="0.75"/><rect class="cls-1" y="29.04" width="130.46" height="0.75"/><rect class="cls-1" y="54.71" width="130.46" height="0.75"/><circle class="cls-2" cx="88.65" cy="3.21" r="2.83"/><path class="cls-1" d="M88.65,6.42a3.21,3.21,0,1,1,3.21-3.21A3.21,3.21,0,0,1,88.65,6.42Zm0-5.67a2.46,2.46,0,1,0,2.46,2.46A2.46,2.46,0,0,0,88.65.75Z"/><circle class="cls-2" cx="30.02" cy="29.42" r="2.83"/><path class="cls-1" d="M30,32.63a3.21,3.21,0,1,1,3.21-3.21A3.21,3.21,0,0,1,30,32.63ZM30,27a2.46,2.46,0,1,0,2.46,2.46A2.46,2.46,0,0,0,30,27Z"/><circle class="cls-2" cx="65.23" cy="55.09" r="2.83"/><path class="cls-1" d="M65.23,58.3a3.21,3.21,0,1,1,3.21-3.21A3.21,3.21,0,0,1,65.23,58.3Zm0-5.67a2.46,2.46,0,1,0,2.46,2.46A2.46,2.46,0,0,0,65.23,52.63Z"/><path class="cls-1" d="M.45,20.35V11.12H4.28a2.4,2.4,0,0,1,1.1.25,2.89,2.89,0,0,1,.86.66,3.15,3.15,0,0,1,.57.93A2.81,2.81,0,0,1,7,14a3.15,3.15,0,0,1-.2,1.1,3,3,0,0,1-.55.93,2.74,2.74,0,0,1-.84.65,2.37,2.37,0,0,1-1.09.25h-3v3.41Zm.91-4.21h3A1.54,1.54,0,0,0,5,16a1.79,1.79,0,0,0,.57-.47A2.21,2.21,0,0,0,6,14.82a2.49,2.49,0,0,0,.13-.8,2.25,2.25,0,0,0-.55-1.48,1.84,1.84,0,0,0-.6-.45,1.67,1.67,0,0,0-.72-.16H1.36Z"/><path class="cls-1" d="M11.79,20.35V11.12h3.9a2.39,2.39,0,0,1,1.1.25,2.88,2.88,0,0,1,.87.66,3,3,0,0,1,.57.93,2.9,2.9,0,0,1,.2,1.05,3.13,3.13,0,0,1-.15,1,3,3,0,0,1-.42.83,2.55,2.55,0,0,1-.64.62,2.26,2.26,0,0,1-.85.34l2.26,3.56h-1l-2.17-3.41H12.7v3.41Zm.91-4.21h3a1.54,1.54,0,0,0,.73-.18,1.75,1.75,0,0,0,.57-.47,2.29,2.29,0,0,0,.36-.68,2.41,2.41,0,0,0,.13-.79A2.25,2.25,0,0,0,17,12.55a1.93,1.93,0,0,0-.6-.46,1.62,1.62,0,0,0-.72-.17H12.7Z"/><path class="cls-1" d="M29.73,19.55v.81h-6.2V11.12h6.08v.81H24.44v3.33H29V16H24.44v3.52Z"/><path class="cls-1" d="M39.9,12.85a2.79,2.79,0,0,0-1-.71,3.79,3.79,0,0,0-1.48-.27,2.79,2.79,0,0,0-1.78.46A1.54,1.54,0,0,0,35,13.58a1.39,1.39,0,0,0,.15.68,1.3,1.3,0,0,0,.46.46,3.24,3.24,0,0,0,.8.34q.49.14,1.15.29a12.44,12.44,0,0,1,1.33.35,3.85,3.85,0,0,1,1,.49,2,2,0,0,1,.64.71,2.2,2.2,0,0,1,.22,1,2.33,2.33,0,0,1-.25,1.1,2.2,2.2,0,0,1-.69.78,3.07,3.07,0,0,1-1.05.46,5.67,5.67,0,0,1-1.34.15,5.5,5.5,0,0,1-3.71-1.34l.46-.74a3.62,3.62,0,0,0,.59.49,4.35,4.35,0,0,0,.77.41,4.85,4.85,0,0,0,.9.27,5.06,5.06,0,0,0,1,.1,3.18,3.18,0,0,0,1.72-.4,1.33,1.33,0,0,0,.62-1.2,1.38,1.38,0,0,0-.18-.72,1.52,1.52,0,0,0-.53-.51,3.71,3.71,0,0,0-.87-.37q-.52-.16-1.21-.31c-.49-.11-.91-.23-1.27-.35a3.42,3.42,0,0,1-.92-.46,1.78,1.78,0,0,1-.57-.66,2.13,2.13,0,0,1-.19-.94,2.59,2.59,0,0,1,.24-1.14,2.23,2.23,0,0,1,.68-.83,3.23,3.23,0,0,1,1-.51,4.72,4.72,0,0,1,1.33-.17,4.53,4.53,0,0,1,1.64.28,4.44,4.44,0,0,1,1.31.79Z"/><path class="cls-1" d="M51.84,19.55v.81h-6.2V11.12h6.08v.81H46.55v3.33h4.51V16H46.55v3.52Z"/><path class="cls-1" d="M57.72,12.81v7.54h-.91V11.12h.7l6.11,7.68V11.14h.91v9.22h-.79Z"/><path class="cls-1" d="M76.65,11.93H73.36v8.42h-.91V11.93H69.16v-.81h7.49Z"/><path class="cls-1" d="M83.23,11.12H84l3.83,9.23h-1l-1.2-2.89H81.52l-1.18,2.89h-1Zm2.24,5.63L83.6,12.19l-1.89,4.56Z"/><path class="cls-1" d="M98,11.93H94.76v8.42h-.91V11.93H90.56v-.81H98Z"/><path class="cls-1" d="M102.67,20.35V11.12h.91v9.23Z"/><path class="cls-1" d="M112.86,20.42a3.91,3.91,0,0,1-1.76-.4A4.36,4.36,0,0,1,109.73,19a4.8,4.8,0,0,1-.88-1.5,5,5,0,0,1-.31-1.73,4.8,4.8,0,0,1,.33-1.77,4.9,4.9,0,0,1,.92-1.5,4.42,4.42,0,0,1,1.38-1,3.9,3.9,0,0,1,1.72-.38,3.8,3.8,0,0,1,1.76.41A4.44,4.44,0,0,1,116,12.54a5,5,0,0,1,.88,1.5,4.89,4.89,0,0,1,.31,1.71,4.8,4.8,0,0,1-.33,1.77A4.88,4.88,0,0,1,116,19a4.43,4.43,0,0,1-1.37,1A3.9,3.9,0,0,1,112.86,20.42Zm-3.42-4.68a4.28,4.28,0,0,0,.25,1.45,3.94,3.94,0,0,0,.7,1.24,3.48,3.48,0,0,0,1.08.86,3,3,0,0,0,1.39.32,3,3,0,0,0,1.42-.34,3.46,3.46,0,0,0,1.08-.88,4.09,4.09,0,0,0,.68-1.23,4.25,4.25,0,0,0,0-2.85,4,4,0,0,0-.71-1.23,3.49,3.49,0,0,0-1.08-.85,3,3,0,0,0-1.38-.32,3,3,0,0,0-1.42.33,3.37,3.37,0,0,0-1.08.88,4.09,4.09,0,0,0-.68,1.23A4.24,4.24,0,0,0,109.45,15.74Z"/><path class="cls-1" d="M123.07,12.81v7.54h-.91V11.12h.7L129,18.81V11.14h.91v9.22h-.79Z"/><path class="cls-1" d="M9.87,48V40.45l-2.93,5.6H5.74l-2.93-5.6V48H.61V36.61H3l3.36,6.46,3.39-6.46h2.35V48Z"/><path class="cls-1" d="M27.28,36.61h2L33.55,48H31.28l-1.06-2.83h-4l-1,2.83H22.94Zm2.54,7-1.57-4.46-1.63,4.46Z"/><path class="cls-1" d="M51.78,38.55H48.14V48H46V38.55H42.32V36.61h9.46Z"/><path class="cls-1" d="M71.28,38.55H67.65V48H65.46V38.55H61.82V36.61h9.46Z"/><path class="cls-1" d="M90.17,46V48H82.29V36.61H90v1.94H84.5v2.74h4.78v1.79H84.5v3Z"/><path class="cls-1" d="M101.5,48V36.61h5a3.22,3.22,0,0,1,1.45.33,3.74,3.74,0,0,1,1.14.86,4.06,4.06,0,0,1,.75,1.22,3.65,3.65,0,0,1,.27,1.37,3.78,3.78,0,0,1-.55,2,3.17,3.17,0,0,1-1.5,1.3L110.69,48h-2.48l-2.32-3.81h-2.18V48Zm2.21-5.74h2.77a1.17,1.17,0,0,0,.57-.14,1.44,1.44,0,0,0,.46-.39,2,2,0,0,0,.3-.58,2.27,2.27,0,0,0,.11-.72,2.06,2.06,0,0,0-.13-.74,1.94,1.94,0,0,0-.34-.58,1.56,1.56,0,0,0-.5-.38,1.28,1.28,0,0,0-.57-.14h-2.67Z"/><path class="cls-1" d="M128.51,39.59a2.72,2.72,0,0,0-.41-.3,5,5,0,0,0-.72-.38,6.25,6.25,0,0,0-.92-.31,4,4,0,0,0-1-.13,2.25,2.25,0,0,0-1.36.34,1.11,1.11,0,0,0-.45.94,1,1,0,0,0,.17.58,1.44,1.44,0,0,0,.49.41,4,4,0,0,0,.81.32l1.13.3q.83.22,1.51.48a4.11,4.11,0,0,1,1.15.64,2.63,2.63,0,0,1,.73.92,3,3,0,0,1,.26,1.32,3.28,3.28,0,0,1-.34,1.56,2.88,2.88,0,0,1-.93,1,4,4,0,0,1-1.34.58,6.73,6.73,0,0,1-1.59.18,8.56,8.56,0,0,1-2.53-.38,7.82,7.82,0,0,1-2.24-1.09l1-1.9a3,3,0,0,0,.52.38,8,8,0,0,0,.89.46,7,7,0,0,0,1.14.39,5.09,5.09,0,0,0,1.28.16q1.83,0,1.82-1.17a1,1,0,0,0-.21-.62,1.79,1.79,0,0,0-.59-.45,5.66,5.66,0,0,0-.93-.35l-1.22-.35a10.31,10.31,0,0,1-1.42-.49,3.69,3.69,0,0,1-1-.62,2.34,2.34,0,0,1-.6-.83,2.87,2.87,0,0,1-.2-1.13,3.52,3.52,0,0,1,.32-1.54,3.1,3.1,0,0,1,.89-1.12,4,4,0,0,1,1.32-.68,5.47,5.47,0,0,1,1.62-.23,6.29,6.29,0,0,1,2.21.38,8.23,8.23,0,0,1,1.76.89Z"/></svg>